<?xml version="1.0" encoding="utf-8"?>
<!-- Generator: Adobe Illustrator 16.0.0, SVG Export Plug-In . SVG Version: 6.00 Build 0)  -->
<!DOCTYPE svg PUBLIC "-//W3C//DTD SVG 1.1//EN" "http://www.w3.org/Graphics/SVG/1.1/DTD/svg11.dtd">
<svg version="1.1" id="Layer_1" xmlns="http://www.w3.org/2000/svg" xmlns:xlink="http://www.w3.org/1999/xlink" x="0px" y="0px"
	 width="221.903px" height="184.217px" viewBox="0 0 221.903 184.217" enable-background="new 0 0 221.903 184.217"
	 xml:space="preserve">
<path opacity="0.8" fill="#3A3ADD" d="M0,10.087h26.92c14.243,0.934,22.816,11.563,23.104,21.282v81.151
	c1.244,6.318,4.045,7.18,10.412,7.264l186.501,0.001v14.92l-186.524-0.159c-12.639-0.101-25.375-4.218-25.613-22.027l0.068-81.104
	c-1.61-6.308-7.896-6.427-7.896-6.427L0,24.942V10.087z"/>
<path opacity="0.8" fill="#2CD62E" d="M0,32.78h49.981c14.242,0.934,22.816,11.563,23.104,21.281v81.151
	c1.244,6.318,4.045,7.18,10.413,7.263l163.439-0.041v14.963l-163.463-0.16c-12.64-0.101-25.375-4.218-25.614-22.026l0.068-81.104
	c-1.609-6.308-7.896-6.427-7.896-6.427L0,47.647V32.78z"/>
<path opacity="0.8" fill="#F91000" d="M0,55.495h73.797C88.039,56.429,96.613,67.058,96.9,76.777v81.151
	c1.244,6.317,4.045,7.179,10.413,7.264l139.624-0.07v14.992l-139.647-0.159c-12.64-0.101-25.375-4.219-25.614-22.027l0.068-81.104
	c-1.61-6.308-7.896-6.427-7.896-6.427L0,70.4V55.495z"/>
</svg>
