<?xml version="1.0" encoding="utf-8"?>
<!-- Generator: Adobe Illustrator 16.0.0, SVG Export Plug-In . SVG Version: 6.00 Build 0)  -->
<!DOCTYPE svg PUBLIC "-//W3C//DTD SVG 1.1//EN" "http://www.w3.org/Graphics/SVG/1.1/DTD/svg11.dtd">
<svg version="1.1" id="Layer_1" xmlns="http://www.w3.org/2000/svg" xmlns:xlink="http://www.w3.org/1999/xlink" x="0px" y="0px"
	 width="203.99px" height="199.187px" viewBox="0 0 203.99 199.187" enable-background="new 0 0 203.99 199.187"
	 xml:space="preserve">
<g>
	<path fill="#1E222B" d="M191.188,176.307c-2,7.793-6.422,13.414-13,14.209c-47.5,5.75-116.57,5.264-147.834,0.375
		c-6.396-1-15.666-2.625-17.834-14.457c-7.686-41.966-7.75-122.416,0-152.417C15.652,11.892,22.74,9.147,30.354,8.025
		c37.791-5.57,123.291-3.758,148.084-0.008c6.043,0.914,11.02,10.676,12.75,15.75C200.395,50.768,197.096,153.286,191.188,176.307z"
		/>
	<path fill="#3A3ADD" d="M11.877,26.806h18.489c12.396,0.813,19.857,10.063,20.107,18.521v70.626
		c1.083,5.499,3.521,6.249,9.063,6.321l136.825,0.001l-0.612,12.985l-136.233-0.138c-11-0.088-22.084-3.671-22.292-19.17
		l0.06-70.585c-1.401-5.49-6.872-5.593-6.872-5.593l-20.75-0.031C9.661,39.744,10.537,33.254,11.877,26.806z"/>
	<path fill="#2CD62E" d="M8.887,46.556h41.55c12.396,0.813,19.857,10.063,20.107,18.521v70.626c1.083,5.499,3.521,6.249,9.063,6.321
		l115.692-0.036l-1.034,13.023l-114.679-0.139c-11-0.088-22.084-3.672-22.292-19.17l0.06-70.585
		c-1.401-5.49-6.872-5.593-6.872-5.593l-42.662-0.03C7.819,59.495,8.166,53.468,8.887,46.556z"/>
	<path fill="#F91000" d="M7.427,66.325h63.736c12.396,0.813,19.857,10.063,20.107,18.521v70.627
		c1.083,5.498,3.521,6.248,9.063,6.321l93.224-0.061c0,0-0.792,7.362-2.011,13.047l-91.233-0.139
		c-11-0.088-22.084-3.671-22.292-19.169l0.06-70.586c-1.401-5.49-6.872-5.593-6.872-5.593L6.938,79.297
		C6.938,79.297,7.052,72.378,7.427,66.325z"/>
</g>
</svg>
