<?xml version="1.0" encoding="utf-8"?>
<!-- Generator: Adobe Illustrator 16.0.0, SVG Export Plug-In . SVG Version: 6.00 Build 0)  -->
<!DOCTYPE svg PUBLIC "-//W3C//DTD SVG 1.1//EN" "http://www.w3.org/Graphics/SVG/1.1/DTD/svg11.dtd">
<svg version="1.1" id="Layer_1" xmlns="http://www.w3.org/2000/svg" xmlns:xlink="http://www.w3.org/1999/xlink" x="0px" y="0px"
	 width="205.489px" height="199.187px" viewBox="0 0 205.489 199.187" enable-background="new 0 0 205.489 199.187"
	 xml:space="preserve">
<g>
	<path fill="#E3E4E5" d="M194.445,176.309c-2,7.793-6.422,13.414-13,14.209c-47.5,5.75-116.57,5.264-147.834,0.375
		c-6.396-1-15.666-2.625-17.834-14.457c-7.686-41.967-7.75-122.419,0-152.419C18.91,11.892,25.998,9.146,33.611,8.024
		c37.791-5.57,123.291-3.758,148.084-0.008c6.043,0.914,11.02,10.676,12.75,15.75C203.652,50.767,200.354,153.287,194.445,176.309z"
		/>
	<path opacity="0.2" fill="#282B30" d="M15.135,26.806h18.488C46.02,27.618,53.48,36.868,53.73,45.327v70.628
		c1.084,5.498,3.521,6.248,9.063,6.32l136.826,0.002l-0.613,12.986l-136.232-0.139c-11-0.088-22.084-3.672-22.293-19.17
		l0.061-70.587c-1.402-5.49-6.873-5.594-6.873-5.594l-20.75-0.031C12.918,39.743,13.795,33.252,15.135,26.806z"/>
	<path opacity="0.2" fill="#282B30" d="M12.145,46.556h41.549c12.396,0.813,19.857,10.063,20.107,18.521v70.628
		c1.084,5.498,3.521,6.248,9.063,6.32l115.693-0.035l-1.035,13.023l-114.678-0.139c-11-0.088-22.084-3.672-22.293-19.17
		l0.061-70.587c-1.402-5.49-6.873-5.594-6.873-5.594l-42.662-0.031C11.076,59.493,11.424,53.468,12.145,46.556z"/>
	<path opacity="0.2" fill="#282B30" d="M10.684,66.323H74.42c12.396,0.814,19.857,10.065,20.107,18.522v70.629
		c1.084,5.498,3.521,6.248,9.063,6.32l93.225-0.061c0,0-0.793,7.363-2.012,13.047l-91.232-0.137
		c-11-0.088-22.084-3.672-22.293-19.17l0.061-70.588c-1.402-5.488-6.873-5.592-6.873-5.592l-64.27,0.002
		C10.195,79.297,10.309,72.377,10.684,66.323z"/>
</g>
</svg>
