<?xml version="1.0" encoding="utf-8"?>
<!-- Generator: Adobe Illustrator 16.0.0, SVG Export Plug-In . SVG Version: 6.00 Build 0)  -->
<!DOCTYPE svg PUBLIC "-//W3C//DTD SVG 1.1//EN" "http://www.w3.org/Graphics/SVG/1.1/DTD/svg11.dtd">
<svg version="1.1" id="Layer_1" xmlns="http://www.w3.org/2000/svg" xmlns:xlink="http://www.w3.org/1999/xlink" x="0px" y="0px"
	 width="205.489px" height="199.192px" viewBox="0 0 205.489 199.192" enable-background="new 0 0 205.489 199.192"
	 xml:space="preserve">
<g>
	<path fill="#1E222B" d="M191.099,176.307c-2,7.793-6.422,13.414-13,14.209c-47.5,5.751-116.57,5.265-147.834,0.375
		c-6.396-1-15.666-2.625-17.834-14.457c-7.686-41.967-7.75-122.416,0-152.417c3.133-12.125,10.221-14.87,17.834-15.992
		c37.791-5.57,123.291-3.758,148.084-0.008c6.043,0.914,11.02,10.676,12.75,15.75C200.306,50.768,197.007,153.285,191.099,176.307z"
		/>
	<path opacity="0.2" fill="#E2E2E2" d="M11.788,26.806h18.49c12.395,0.813,19.857,10.063,20.107,18.521v70.627
		c1.082,5.498,3.52,6.248,9.063,6.321l136.824,0.001l-0.611,12.985l-136.234-0.138c-11-0.088-22.084-3.672-22.291-19.17
		l0.059-70.586c-1.4-5.489-6.871-5.593-6.871-5.593l-20.75-0.031C9.573,39.744,10.448,33.254,11.788,26.806z"/>
	<path opacity="0.2" fill="#E2E2E2" d="M8.798,46.556h41.551c12.395,0.813,19.857,10.063,20.107,18.521v70.627
		c1.082,5.498,3.52,6.248,9.063,6.321l115.691-0.036l-1.033,13.022l-114.68-0.138c-11-0.088-22.084-3.672-22.291-19.17l0.059-70.586
		c-1.4-5.489-6.871-5.593-6.871-5.593l-42.662-0.03C7.731,59.495,8.077,53.468,8.798,46.556z"/>
	<path opacity="0.2" fill="#E2E2E2" d="M7.339,66.325h63.736c12.395,0.813,19.857,10.063,20.107,18.521v70.626
		c1.082,5.499,3.52,6.249,9.063,6.321l93.223-0.061c0,0-0.791,7.363-2.01,13.048l-91.234-0.139c-11-0.088-22.084-3.671-22.291-19.17
		l0.059-70.585c-1.4-5.49-6.871-5.594-6.871-5.594L6.849,79.297C6.849,79.297,6.964,72.378,7.339,66.325z"/>
</g>
</svg>
